<svg id="Capa_1" enable-background="new 0 0 512 512" height="512" viewBox="0 0 512 512" width="512" xmlns="http://www.w3.org/2000/svg"><g><path d="m163.991 401.635h117.735c7.672-22.837 20.386-43.649 37.185-60.917 24.717-25.408 39.442-60.578 37.803-99.192-2.936-69.186-59.394-125.397-128.592-128.046-76.391-2.925-139.24 58.137-139.24 133.877 0 36.322 14.465 69.249 37.94 93.374 16.795 17.26 29.498 38.07 37.168 60.9z" fill="#fdb97e"/><path d="m356.715 241.526c-2.936-69.186-59.394-125.397-128.592-128.047-7.708-.295-15.275.072-22.656 1.029 63.557 8.317 113.703 61.921 116.466 127.017 1.639 38.614-13.086 73.784-37.803 99.192-16.799 17.268-29.512 38.08-37.185 60.917h34.783c7.672-22.837 20.386-43.649 37.185-60.917 24.715-25.407 39.441-60.577 37.802-99.191z" fill="#fea95c"/><path d="m163.991 401.635h117.735v48.214c0 32.512-26.356 58.868-58.868 58.868-32.512 0-58.868-26.356-58.868-58.868v-48.214z" fill="#3e5959"/><path d="m246.944 401.635v48.214c0 26.457-17.455 48.835-41.476 56.254 5.497 1.697 11.337 2.614 17.391 2.614 32.512 0 58.868-26.356 58.868-58.868v-48.214z" fill="#384949"/><g><path d="m262.304 256.565c-7.104 0-12.862-5.758-12.862-12.862v-49.39c0-14.089-11.463-25.552-25.552-25.552-14.09 0-25.553 11.463-25.553 25.552v49.39c0 7.104-5.759 12.862-12.862 12.862-7.104 0-12.862-5.758-12.862-12.862v-49.39c0-28.274 23.003-51.276 51.277-51.276s51.276 23.003 51.276 51.276v49.39c0 7.104-5.759 12.862-12.862 12.862z" fill="#678d98"/></g><path d="m471.442 216.948c-17.597 0-32.572 11.209-38.186 26.875h-98.305c-3.41 0-6.174 2.764-6.174 6.174v2.635 21.253 23.887c0 3.41 2.764 6.174 6.174 6.174h13.153c3.41 0 6.174-2.764 6.174-6.174v-23.887h80.06c6.295 14.239 20.534 24.181 37.104 24.181 22.4 0 40.558-18.159 40.558-40.558 0-22.401-18.159-40.56-40.558-40.56z" fill="#678d98"/><path d="m280.663 335.789h-115.604c-5.37 0-9.724-4.353-9.724-9.724v-102.279c0-5.37 4.353-9.724 9.724-9.724h115.604c5.37 0 9.724 4.353 9.724 9.724v102.279c0 5.371-4.354 9.724-9.724 9.724z" fill="#fe860a"/><g><path d="m222.859 290.641c-4.262 0-7.717-3.455-7.717-7.717v-39.101c0-4.262 3.455-7.717 7.717-7.717s7.717 3.455 7.717 7.717v39.101c.001 4.262-3.455 7.717-7.717 7.717z" fill="#ca2c2c"/></g><circle cx="222.689" cy="303.945" fill="#ca2c2c" r="7.546"/><path d="m280.974 434.008h-116.57c-5.083 0-9.203-4.12-9.203-9.203v-13.968c0-5.083 4.12-9.203 9.203-9.203h116.57c5.083 0 9.203 4.12 9.203 9.203v13.968c0 5.083-4.121 9.203-9.203 9.203z" fill="#537983"/><path d="m280.974 401.635h-34.783c5.083 0 9.203 4.12 9.203 9.203v13.968c0 5.083-4.12 9.203-9.203 9.203h34.783c5.083 0 9.203-4.12 9.203-9.203v-13.968c0-5.083-4.121-9.203-9.203-9.203z" fill="#3e5959"/><g fill="#537983"><path d="m418.763 258.316c1.961-5.471 5.066-10.396 9.024-14.493h-92.836c-3.41 0-6.174 2.764-6.174 6.174v2.635 5.685h89.986z"/><path d="m471.442 216.948c-14.919 0-27.95 8.059-34.993 20.058 6.016-3.533 13.019-5.565 20.501-5.565 22.4 0 40.558 18.158 40.558 40.558 0 7.481-2.034 14.483-5.566 20.499 11.997-7.044 20.058-20.073 20.058-34.991 0-22.4-18.159-40.559-40.558-40.559z"/></g><g><g><path d="m222.689 89.239c-4.235 0-7.669-3.434-7.669-7.669v-70.617c0-4.235 3.434-7.669 7.669-7.669s7.669 3.434 7.669 7.669v70.617c0 4.236-3.434 7.669-7.669 7.669z" fill="#fea95c"/></g><g><path d="m78.287 169.873h-70.618c-4.235 0-7.669-3.434-7.669-7.669s3.434-7.669 7.669-7.669h70.618c4.235 0 7.669 3.434 7.669 7.669 0 4.236-3.434 7.669-7.669 7.669z" fill="#fea95c"/></g><g><path d="m437.708 169.873h-70.618c-4.235 0-7.669-3.434-7.669-7.669s3.434-7.669 7.669-7.669h70.618c4.235 0 7.669 3.434 7.669 7.669 0 4.236-3.433 7.669-7.669 7.669z" fill="#fea95c"/></g><g><path d="m120.581 108.345c-1.963 0-3.925-.748-5.423-2.246l-49.934-49.934c-2.995-2.995-2.995-7.851 0-10.846s7.851-2.996 10.846 0l49.934 49.934c2.995 2.995 2.995 7.851 0 10.846-1.498 1.497-3.461 2.246-5.423 2.246z" fill="#fea95c"/></g><g><path d="m324.796 108.345c-1.963 0-3.925-.749-5.423-2.246-2.995-2.995-2.995-7.851 0-10.846l49.934-49.934c2.995-2.995 7.851-2.995 10.846 0s2.995 7.851 0 10.846l-49.934 49.934c-1.498 1.497-3.46 2.246-5.423 2.246z" fill="#fea95c"/></g></g></g></svg>